<svg width="86" height="24" viewBox="0 0 86 24" fill="none" xmlns="http://www.w3.org/2000/svg">
<path d="M0.56 11.74C0.56 11.0467 0.682667 10.3693 0.928 9.708C1.17333 9.036 1.53067 8.428 2 7.884C2.48 7.32933 3.06133 6.892 3.744 6.572C4.42667 6.24133 5.2 6.076 6.064 6.076C7.088 6.076 7.97333 6.31067 8.72 6.78C9.46667 7.23867 10.0213 7.83067 10.384 8.556L8.976 9.5C8.76267 9.04133 8.49067 8.67867 8.16 8.412C7.84 8.14533 7.488 7.95867 7.104 7.852C6.73067 7.74533 6.36267 7.692 6 7.692C5.40267 7.692 4.88 7.81467 4.432 8.06C3.984 8.29467 3.60533 8.60933 3.296 9.004C2.99733 9.39867 2.768 9.84133 2.608 10.332C2.45867 10.8227 2.384 11.3133 2.384 11.804C2.384 12.348 2.47467 12.876 2.656 13.388C2.83733 13.8893 3.088 14.3373 3.408 14.732C3.73867 15.116 4.128 15.42 4.576 15.644C5.024 15.868 5.51467 15.98 6.048 15.98C6.41067 15.98 6.78933 15.916 7.184 15.788C7.57867 15.66 7.94133 15.4627 8.272 15.196C8.61333 14.9187 8.88 14.556 9.072 14.108L10.56 14.956C10.3253 15.5213 9.95733 16.0013 9.456 16.396C8.96533 16.7907 8.41067 17.0893 7.792 17.292C7.184 17.4947 6.58133 17.596 5.984 17.596C5.184 17.596 4.45333 17.4307 3.792 17.1C3.13067 16.7587 2.56 16.3107 2.08 15.756C1.6 15.1907 1.22667 14.5613 0.96 13.868C0.693333 13.164 0.56 12.4547 0.56 11.74ZM12.2175 17.5V6.14H14.0095V15.916H20.1055V17.5H12.2175ZM25.9688 17.58C25.1474 17.58 24.4061 17.42 23.7448 17.1C23.0834 16.78 22.5128 16.348 22.0328 15.804C21.5528 15.2493 21.1794 14.6307 20.9128 13.948C20.6568 13.2547 20.5288 12.5453 20.5288 11.82C20.5288 11.0627 20.6674 10.3427 20.9448 9.66C21.2221 8.96667 21.6061 8.35333 22.0968 7.82C22.5874 7.276 23.1634 6.84933 23.8248 6.54C24.4968 6.22 25.2221 6.06 26.0008 6.06C26.8114 6.06 27.5474 6.22533 28.2088 6.556C28.8808 6.88667 29.4514 7.32933 29.9208 7.884C30.4008 8.43867 30.7688 9.05733 31.0248 9.74C31.2914 10.4227 31.4248 11.1213 31.4248 11.836C31.4248 12.5933 31.2861 13.3187 31.0088 14.012C30.7421 14.6947 30.3634 15.308 29.8728 15.852C29.3821 16.3853 28.8008 16.8067 28.1288 17.116C27.4674 17.4253 26.7474 17.58 25.9688 17.58ZM22.3528 11.82C22.3528 12.3533 22.4381 12.8707 22.6088 13.372C22.7794 13.8733 23.0194 14.3213 23.3288 14.716C23.6488 15.1 24.0328 15.404 24.4808 15.628C24.9288 15.852 25.4301 15.964 25.9848 15.964C26.5608 15.964 27.0728 15.8467 27.5208 15.612C27.9688 15.3773 28.3421 15.0627 28.6408 14.668C28.9501 14.2627 29.1848 13.8147 29.3448 13.324C29.5048 12.8227 29.5848 12.3213 29.5848 11.82C29.5848 11.2867 29.4994 10.7747 29.3288 10.284C29.1688 9.78267 28.9288 9.34 28.6088 8.956C28.2888 8.56133 27.9048 8.252 27.4568 8.028C27.0194 7.804 26.5288 7.692 25.9848 7.692C25.4088 7.692 24.8968 7.80933 24.4488 8.044C24.0008 8.27867 23.6221 8.59333 23.3128 8.988C23.0034 9.38267 22.7634 9.82533 22.5928 10.316C22.4328 10.8067 22.3528 11.308 22.3528 11.82ZM39.9844 8.812C39.8777 8.69467 39.723 8.572 39.5204 8.444C39.3177 8.30533 39.0777 8.17733 38.8004 8.06C38.523 7.94267 38.2244 7.84667 37.9044 7.772C37.5844 7.69733 37.2537 7.66 36.9124 7.66C36.1657 7.66 35.611 7.79867 35.2484 8.076C34.8857 8.35333 34.7044 8.73733 34.7044 9.228C34.7044 9.59067 34.8057 9.87867 35.0084 10.092C35.211 10.2947 35.5204 10.4653 35.9364 10.604C36.3524 10.7427 36.875 10.892 37.5044 11.052C38.2724 11.2333 38.939 11.452 39.5044 11.708C40.0697 11.9533 40.5017 12.284 40.8004 12.7C41.099 13.116 41.2484 13.6653 41.2484 14.348C41.2484 14.924 41.1417 15.42 40.9284 15.836C40.715 16.252 40.4164 16.5933 40.0324 16.86C39.6484 17.116 39.2057 17.308 38.7044 17.436C38.203 17.5533 37.6644 17.612 37.0884 17.612C36.523 17.612 35.9577 17.5533 35.3924 17.436C34.8377 17.3187 34.3044 17.148 33.7924 16.924C33.291 16.6893 32.827 16.4067 32.4004 16.076L33.2164 14.54C33.355 14.6787 33.5524 14.8333 33.8084 15.004C34.075 15.164 34.379 15.3187 34.7204 15.468C35.0724 15.6173 35.451 15.7453 35.8564 15.852C36.2724 15.948 36.6937 15.996 37.1204 15.996C37.835 15.996 38.379 15.8733 38.7524 15.628C39.1364 15.372 39.3284 15.0093 39.3284 14.54C39.3284 14.156 39.2057 13.852 38.9604 13.628C38.715 13.3933 38.3577 13.196 37.8884 13.036C37.419 12.876 36.859 12.716 36.2084 12.556C35.4617 12.3533 34.8377 12.1347 34.3364 11.9C33.835 11.6547 33.4564 11.3453 33.2004 10.972C32.955 10.588 32.8324 10.1027 32.8324 9.516C32.8324 8.76933 33.0137 8.14 33.3764 7.628C33.739 7.10533 34.2297 6.716 34.8484 6.46C35.4777 6.19333 36.1817 6.06 36.9604 6.06C37.4724 6.06 37.9577 6.11867 38.4164 6.236C38.875 6.34267 39.3017 6.492 39.6964 6.684C40.1017 6.876 40.4697 7.09467 40.8004 7.34L39.9844 8.812ZM50.8376 15.916V17.5H43.0456V6.14H50.6936V7.724H44.8376V10.956H49.9096V12.444H44.8376V15.916H50.8376Z" fill="#292D32"/>
<path d="M68 4L80.9121 16.5411" stroke="#292D32" stroke-width="2" stroke-linecap="round" stroke-linejoin="round"/>
<path d="M67.7603 16.9772L80.3981 4.1598" stroke="#292D32" stroke-width="2" stroke-linecap="round" stroke-linejoin="round"/>
</svg>
