<svg width="34" height="34" viewBox="0 0 34 34" fill="none" xmlns="http://www.w3.org/2000/svg">
<path d="M12.2549 26.3178L11.5986 22.4828C11.4116 21.4168 10.743 20.5058 9.78215 20.0079L6.31444 18.2238C3.35003 16.7031 4.07404 12.2643 7.37527 11.7765L9.10195 11.5264C9.34439 11.4849 9.58795 11.5294 9.79067 11.6535L21.8626 18.4849C22.3557 18.768 22.5473 19.384 22.298 19.8895L18.7157 27.2448C17.2686 30.2419 12.817 29.6018 12.2549 26.3178Z" fill="#DD3333"/>
<path d="M22.3791 17.126L14.4729 12.6579C13.5841 12.1566 13.8341 10.8072 14.8436 10.6616L21.294 9.69835C24.0323 9.28869 26.1032 12.1103 24.8914 14.5999L23.8799 16.6695C23.6022 17.2207 22.9259 17.4317 22.3791 17.126Z" fill="#DD3333"/>
</svg>
