<svg width="83" height="24" viewBox="0 0 83 24" fill="none" xmlns="http://www.w3.org/2000/svg">
<path d="M11.184 17.5V8.828L7.44 15.5H6.56L2.8 8.828V17.5H1.36V6.14H2.88L6.992 13.516L11.12 6.14H12.624V17.5H11.184ZM23.0564 16.22V17.5H15.3444V6.14H22.9124V7.42H16.7844V11.1H22.1124V12.3H16.7844V16.22H23.0564ZM26.4719 8.796V17.5H25.0319V6.14H26.2479L33.1919 15.02V6.156H34.6319V17.5H33.3199L26.4719 8.796ZM42.0324 17.58C41.1257 17.58 40.363 17.4253 39.7444 17.116C39.1257 16.796 38.6297 16.3693 38.2564 15.836C37.883 15.292 37.611 14.6787 37.4404 13.996C37.2697 13.3133 37.1844 12.6093 37.1844 11.884V6.14H38.6244V11.884C38.6244 12.4387 38.6777 12.9827 38.7844 13.516C38.9017 14.0387 39.0884 14.508 39.3444 14.924C39.6004 15.34 39.947 15.6707 40.3844 15.916C40.8217 16.1613 41.3657 16.284 42.0164 16.284C42.6777 16.284 43.227 16.1613 43.6644 15.916C44.1017 15.66 44.4484 15.324 44.7044 14.908C44.9604 14.4813 45.1417 14.0067 45.2484 13.484C45.3657 12.9613 45.4244 12.428 45.4244 11.884V6.14H46.8644V11.884C46.8644 12.652 46.7737 13.3827 46.5924 14.076C46.4217 14.7587 46.1444 15.3613 45.7604 15.884C45.3764 16.4067 44.875 16.8227 44.2564 17.132C43.6484 17.4307 42.907 17.58 42.0324 17.58Z" fill="#292D32"/>
<path d="M62 12H80" stroke="#292D32" stroke-width="2" stroke-linecap="round" stroke-linejoin="round"/>
<path d="M62 6H80" stroke="#292D32" stroke-width="2" stroke-linecap="round" stroke-linejoin="round"/>
<path d="M62 18H80" stroke="#292D32" stroke-width="2" stroke-linecap="round" stroke-linejoin="round"/>
</svg>
